@startuml

hide empty members


'classes

class Formatter
class CSFormatter
class CORAFormatter
class CORDFormatter

abstract SurveyTransformer
SurveyTransformer : create_pck
SurveyTransformer : create_receipt
SurveyTransformer : create_images
SurveyTransformer : get_zip

class MWSSTransformer
class MBSTransformer
class CSTransformer
class PCKTransformer
class UKISTransformer
class EcommerceTransformer
class Ecommerce2019Transformer

class ImageTransformer
ImageTransformer : get_zipped_images()
ImageTransformer : get_zip()

class InMemoryZip
InMemoryZip : append()
InMemoryZip : rewind()
InMemoryZip : get_filenames()

class IndexFile
IndexFile : rewind()

class PDFTransformer
PDFTransformer : render_pages()

class Processor
Processor : round_towards()
Processor : aggregate()
Processor : evaluate()
Processor : boolean()
Processor : mean()
Processor : events()
Processor : survey_string()
Processor : unsigned_integer()
Processor : percentage()

class Survey
Survey : load_survey()
Survey : bind_logger()
Survey : parse_timestamp()
Survey : identifiers()


'inheritence

Formatter <|-u- CSFormatter
Formatter <|-u- CORAFormatter
Formatter <|-u- CORDFormatter

SurveyTransformer <|-- CSTransformer
SurveyTransformer <|-- MWSSTransformer
SurveyTransformer <|-- MBSTransformer
SurveyTransformer <|-- UKISTransformer
SurveyTransformer <|-- EcommerceTransformer
EcommerceTransformer <|-U- Ecommerce2019Transformer

'aggregations
SurveyTransformer o-L ImageTransformer

CSFormatter -u- MWSSTransformer : uses <
CSFormatter -u- MBSTransformer : uses <
CORAFormatter -u- UKISTransformer : uses <
CORDFormatter -u- EcommerceTransformer : uses <

IndexFile --o ImageTransformer
ImageTransformer o-U- InMemoryZip
ImageTransformer -L PDFTransformer : uses >

SurveyTransformer -R Survey : uses >
MWSSTransformer -- Processor : uses >
CSTransformer -d- PCKTransformer : uses >

@enduml